<svg version="1" xmlns="http://www.w3.org/2000/svg" width="400" height="400" viewBox="0 0 300.000000 300.000000"><path d="M103.4 7.1C98.2 9 91.7 30.7 91.8 45.5c0 9.3.8 18 1.7 19.5.3.5-.6 2.1-1.9 3.7-3.5 4.2-12.2 21.3-15 29.6-.7 2.2-2.4 1.4-10.9-4.9-3.1-2.4-5.9-4.4-6.2-4.4-1.2 0-.3 7.2 1.9 15 3.5 12.4 4.5 14.9 8.7 21.5 2.1 3.3 3.6 6.1 3.4 6.4-.8.7-8.4-4.8-12.4-8.9-2.1-2.2-4.2-4-4.6-4-1.1 0 .1 10.1 1.6 14.7 1.8 5.2 6.4 12 11.8 17.3l4.6 4.4-4.3-2.4c-2.3-1.3-4.2-2.7-4.2-3.2 0-.4-.7-.8-1.5-.8-4 0 .9 11.3 7.6 17.5 2.4 2.2 7 6 10.1 8.5l5.6 4.3-2.9 2.8c-1.6 1.5-2.9 3.4-2.9 4.2 0 2.2 5.4 7.6 8.9 8.8 3.2 1.1 3.9 2.3 2.1 3.4-2 1.2-1.1 4.5 1.3 4.6 1.2 0 3.1.2 4.2.4 1.1.1 4.2.6 7 .9 3.4.4 5.8 1.4 7.7 3.3 2.5 2.4 5 3.1 12.8 3.6.8.1 2.9-.2 4.7-.7 2.7-.6 3.7-.3 5.9 1.8 1.5 1.4 3.1 2.3 3.4 2.1.4-.2 2.1-.7 3.9-1l3.2-.6-2.2 2.3c-1.2 1.3-4.1 5.4-6.6 9.1-2.9 4.6-5.4 7.3-7.6 8.2-3.1 1.3-18.7 12.4-23.6 16.8-2.7 2.5-11.2 15.1-13.3 19.7-.7 1.6-1.7 3-2.3 3-1.4 0-7.5-3.8-7.5-4.7 0-.5-1.8-2.8-4.1-5.3-10.1-11.3-18.1-27.3-27.4-55.5-2.7-8-4.2-13.5-5-18.5-.3-1.9-1-5.3-1.5-7.6-3.2-14.1-3.2-56.2-.1-67.1.5-1.7.7-3.3.5-3.6-.6-.5 3.1-18.8 5.2-25.7.9-3 4.8-14.7 8.6-26 7.7-22.7 8.7-27.7 6.4-33-4.9-11.1-12.3-11.5-22.4-1.2C32 36.2 22.7 56.1 18.6 78.5c-3.3 18-4 65-1.1 79.5.2 1.3.7 4.2 1 6.5.6 4.2 2.2 13.3 3 17.5.3 1.4.8 3.8 1 5.5 3.3 18.9 10.9 41.5 19.3 57 8.6 15.9 22.2 35.1 31.4 44.3 12.5 12.5 2.9 11.2 83.1 11.2H226l1-2.6c1.3-3.2 1.3-8.5 0-11.8-.6-1.7-.6-2.7.2-3.2.7-.4.8-.3.4.4s-.2 1 .7.6c1-.3 1.2-1.6.8-4.7-.8-5.5-.8-6.7.3-6.7.6-.1 1.5 2 2.2 4.5.6 2.5 1.6 5.1 2.2 5.7 1.3 1.3 3.3.2 2.7-1.5-1-2.8-1.3-7.7-.5-7.7.5 0 1.4 1.6 2.1 3.5 1.3 3.4 3.3 5 5 4 .4-.3.4-1.8-.2-3.3-.6-1.5-1-2.8-.9-3 .1-.1-.1-1.5-.4-3-.4-1.5-.9-3.7-1.1-5-.3-1.2-.7-3-.9-4-2.6-10.6-3.9-16.2-4.3-18.7-.3-1.7-1.1-6.3-1.8-10.3-.7-4.1-.8-7.5-.3-7.8.5-.3.7-.2.6.3-.2.8 2.9 9.6 5.7 15.8 1.4 3.2 2.4 6.2 2.5 7 0 .6 8.6 17.4 10 19.5.5.8 1.9 3.7 3.1 6.3 2.3 5 4.3 6.7 6 5 .6-.6.4-2.5-.6-5.2-1.8-5.1-1.8-5.1-.6-5.1.5 0 2.4 2.2 4.2 5 5.2 7.7 9.6 6 4.8-1.9-2.9-4.7-1.3-5.3 2.4-.8 3.1 3.5 6.7 5 6.7 2.6 0-.7.7-1.7 1.6-2.4 1.4-1 .6-2.4-6.4-11.8-5.7-7.6-10.6-15.8-17.1-29-9.9-19.9-11.1-24.1-7.3-24.3 3.2-.2 3.7-1 5.1-7.6 1.2-5.5 2.2-7 4.7-7.4 2.3-.4 28.9-10.7 30.2-11.7 2.1-1.7 6.4-11.6 5.8-13.4-.6-1.7-8.7-7.3-10.6-7.3-1.4 0-1.3-.6 1-5 3.4-6.7 5.6-20.8 3.1-20.2-.8.2-1-.4-.7-1.6 1.2-3.6 2.2-15.3 1.5-15.8-.5-.2-1.5.8-2.4 2.3l-1.5 2.8.7-4c.4-2.2.7-8.3.7-13.5-.2-14.7-4-25.5-5.7-16.4-.7 3.3-2.6 7.1-2.6 5.2-.1-1-.8-1.5-1.8-1.3-1.4.2-2.9-2-6.2-8.9-3.9-8-4.4-9.7-4.1-14.6 1.2-17.7 0-28.4-5-42.7-4-11.6-9.5-17.7-13.8-15.4-3.4 1.8-16.2 17.8-21.2 26.5l-3 5.4-5.3-1.3c-2.8-.7-7.7-1.6-10.8-2-3.1-.3-6.7-.8-8-1.1-5.2-1-34.9-.2-40.7 1.1-1.8.5-3.8-.8-9.4-6-17.4-16.1-38.6-28-45.4-25.4zM41.5 52c.3.6-.1.7-.9.4-1.8-.7-2.1-1.4-.7-1.4.6 0 1.3.4 1.6 1zm135.2.5c0 .8-.4 1.2-.9.9-.5-.3-.6-1-.3-1.5.9-1.3 1.2-1.1 1.2.6zm24.8 5.5c.3.6-.1.7-.9.4-1.8-.7-2.1-1.4-.7-1.4.6 0 1.3.4 1.6 1zm8 1.9c-.9.8-3.6 1-3 .2.2-.4 1.1-.8 2-.8.8 0 1.3.3 1 .6zm-23.2 1.6c-.3.9-.8 1.4-1 1.1-.3-.3-.2-.9.2-1.5.9-1.6 1.5-1.3.8.4zm40.4 1.3c0 1-.6 1.9-1.3 1.9-.9 0-.9-.5-.1-1.9.7-1 1.3-1.8 1.4-1.8.1 0 .1.8 0 1.8zm-17.8.5c.8 1 .7 1.4-.2 1.4-.8 0-1.4-.6-1.4-1.4 0-.7.1-1.3.2-1.3.2 0 .8.6 1.4 1.3zm28.2 4.4c1.3 1.6 1.2 1.7-.3.4-1-.7-1.8-1.5-1.8-1.7 0-.8.8-.3 2.1 1.3zm-36.6 5.1c-.3.3-1.1 0-1.8-.7-.9-1-.8-1.1.6-.5 1 .3 1.5.9 1.2 1.2zm25.9-.2c.3.8.2 1.2-.4.9-.6-.3-1-1-1-1.6 0-1.4.7-1.1 1.4.7zM205.5 74c.3.6-.1.7-.9.4-1.8-.7-2.1-1.4-.7-1.4.6 0 1.3.4 1.6 1zm19.1 10c0 1.2-.4 1.6-.9 1.1s-.6-1.4-.3-2c1-1.5 1.2-1.4 1.2.9zm3.8 1.9c.3.5-.2 1.5-1.2 2.2-1.5 1.2-1.6 1.2-.5-.2.7-.9 1-1.9.6-2.2-.3-.4-.4-.7 0-.7.3 0 .8.4 1.1.9zm-7.4 1.7c0 .8-1.9 1.3-2.4.6-.3-.5.1-.9.9-.9s1.5.2 1.5.3zm4-.2c0 .2-.7.7-1.6 1-.8.3-1.2.2-.9-.4.6-1 2.5-1.4 2.5-.6zM29.1 91.7c1.3 1.6 1.2 1.7-.3.4-1-.7-1.8-1.5-1.8-1.7 0-.8.8-.3 2.1 1.3zm88 0c1.3 1.6 1.2 1.7-.3.4-1.7-1.3-2.2-2.1-1.4-2.1.2 0 1 .8 1.7 1.7zM115 94c0 .5-.5 1-1.1 1-.5 0-.7-.5-.4-1 .3-.6.8-1 1.1-1 .2 0 .4.4.4 1zm-86.3 3.5c0 .8-.4 1.2-.9.9-.5-.3-.6-1-.3-1.5.9-1.3 1.2-1.1 1.2.6zm-3.7-.1c0 .2-.7.7-1.6 1-.8.3-1.2.2-.9-.4.6-1 2.5-1.4 2.5-.6zm87.5 14.5c-.9.8-3.6 1-3 .2.2-.4 1.1-.8 2-.8.8 0 1.3.3 1 .6zm13 2.1c.3.6-.1.7-.9.4-1.8-.7-2.1-1.4-.7-1.4.6 0 1.3.4 1.6 1zm-13.5 1.5c-.7.9-1.5 1.3-1.8 1-.3-.3-1.2.1-2.1.8-1.4 1.1-1.4 1-.2-.5.7-1 1.7-1.6 2.1-1.3.5.3 1.1.1 1.5-.5.3-.5.9-1 1.2-1 .3 0 0 .7-.7 1.5zm13.5 2.5c-.3.5-1.2 1-1.8 1-.7 0-.6-.4.3-1 1.9-1.2 2.3-1.2 1.5 0zm-4.8 1.5c0 .8-.4 1.2-.9.9-.5-.3-.6-1-.3-1.5.9-1.3 1.2-1.1 1.2.6zm-14.7.1c0 .8-1.9 1.3-2.4.6-.3-.5.1-.9.9-.9s1.5.2 1.5.3zm39 1.8c0 .2-.7.7-1.6 1-.8.3-1.2.2-.9-.4.6-1 2.5-1.4 2.5-.6zm-19.5 2.6c.3.6-.1.7-.9.4-1.8-.7-2.1-1.4-.7-1.4.6 0 1.3.4 1.6 1zm8 0c.3.6-.1.7-.9.4-1.8-.7-2.1-1.4-.7-1.4.6 0 1.3.4 1.6 1zm4.5-.4c0 .8-1.9 1.3-2.4.6-.3-.5.1-.9.9-.9s1.5.2 1.5.3zm-106.6 4.3c-.3.4-.9.6-1.2.6-.4 0-1.2.3-1.8.7-.6.4-1.1.1-1.1-.5 0-.7 1.1-1.3 2.3-1.3 1.3 0 2.1.2 1.8.5zm85.1 0c.3.5.2 1.2-.3 1.5-.5.3-.9-.1-.9-.9 0-1.7.3-1.9 1.2-.6zm4.5 3.5c0 .2-.7.7-1.6 1-.8.3-1.2.2-.9-.4.6-1 2.5-1.4 2.5-.6zm7.1 1.9c-1 .9-1.1.8-.5-.6.3-1 .9-1.5 1.2-1.2.3.3 0 1.1-.7 1.8zm18.9.3c0 .8-1.9 1.3-2.4.6-.3-.5.1-.9.9-.9s1.5.2 1.5.3zm-112 3.8c0 .3-.4.8-1 1.1-.5.3-1 .1-1-.4 0-.6.5-1.1 1-1.1.6 0 1 .2 1 .4zm180.2 85.9c-.6 11.1-.7 38.9-.1 45.9.5 5.6.4 5.7-1.4 4.5-1.8-1.2-2-2.7-2.4-12.8-.1-6.3-.4-12.3-.5-13.4-.1-1.1.4-4.4 1.1-7.3 1.7-6.7.9-19-1.4-22.5-1.6-2.5-1.6-2.6.7-2.9 4.2-.7 4.5-.1 4 8.5zm-54.2-4.9c-.7.7-1.3.7-2 0-.6-.6-.3-1 1-1s1.6.4 1 1zm6 1.6c0 .5-.2 1-.4 1-.3 0-.8-.5-1.1-1-.3-.6-.1-1 .4-1 .6 0 1.1.4 1.1 1zm3 3.4c0 .2-.8 1-1.7 1.7-1.6 1.3-1.7 1.2-.4-.4 1.3-1.6 2.1-2.1 2.1-1.3zm-8.5 4.5c-.9.8-3.6 1-3 .2.2-.4 1.1-.8 2-.8.8 0 1.3.3 1 .6zM155 230c0 .5-.5 1-1.1 1-.5 0-.7-.5-.4-1 .3-.6.8-1 1.1-1 .2 0 .4.4.4 1zm6 2.1c0 .5-.4.9-.8.9-.5 0-.9-.7-.9-1.5s.4-1.2.9-.9c.4.3.8.9.8 1.5zm0 2.3c0 .2-.8 1-1.7 1.7-1.6 1.3-1.7 1.2-.4-.4 1.3-1.6 2.1-2.1 2.1-1.3zm-24.5 5.6c.3.5.1 1-.4 1-.6 0-1.1-.5-1.1-1 0-.6.2-1 .4-1 .3 0 .8.4 1.1 1zm.5 3.4c0 .2-.7.7-1.6 1-.8.3-1.2.2-.9-.4.6-1 2.5-1.4 2.5-.6zm-12 12.5c0 .6-.4 1.2-.8 1.5-.5.3-.9-.1-.9-.9s.4-1.5.9-1.5c.4 0 .8.4.8.9zm3.5.1c.3.5.1 1-.4 1-.6 0-1.1-.5-1.1-1 0-.6.2-1 .4-1 .3 0 .8.4 1.1 1zm.9 3.8c.2.4-.4.8-1.4.8-1 0-1.6-.4-1.4-.8.3-.4.9-.8 1.4-.8.5 0 1.1.4 1.4.8zm-8.9 4.2c.3.5.1 1-.4 1-.6 0-1.1-.5-1.1-1 0-.6.2-1 .4-1 .3 0 .8.4 1.1 1zm1 4c.3.6-.1.7-.9.4-1.8-.7-2.1-1.4-.7-1.4.6 0 1.3.4 1.6 1zm102.5 7.6c0 1.4.5 3.4 1.1 4.6 1 1.8.9 1.8-2-.3-2.1-1.5-3.1-3-2.9-4.4.6-4.2 3.8-4.1 3.8.1z"/></svg>